<!DOCTYPE svg PUBLIC "-//W3C//DTD SVG 20010904//EN" "http://www.w3.org/TR/2001/REC-SVG-20010904/DTD/svg10.dtd">
<svg version="1.0" xmlns="http://www.w3.org/2000/svg" width="360px" height="360px" viewBox="0 0 3600 3600" preserveAspectRatio="xMidYMid meet">
<g id="layer1" fill="#ffffff" stroke="none">
 <path d="M900 3488 c-14 -6 -84 -37 -156 -69 -178 -79 -199 -79 -301 7 -54 46 -80 56 -68 27 4 -10 15 -40 26 -68 11 -27 32 -68 47 -90 25 -36 32 -40 76 -43 53 -3 107 15 198 69 137 81 210 112 263 112 47 0 58 -5 121 -53 38 -29 85 -67 104 -85 60 -56 178 -134 233 -155 59 -23 89 -25 120 -9 39 20 117 74 117 82 0 16 -45 5 -89 -21 -25 -16 -55 -32 -65 -35 -33 -13 -117 39 -242 150 -133 117 -192 159 -244 172 -65 17 -115 20 -140 9z"/>
 <path d="M171 3367 c-29 -239 44 -364 489 -842 42 -45 122 -163 167 -245 31 -56 87 -202 98 -255 4 -16 18 -67 32 -112 34 -110 27 -162 -26 -213 -20 -19 -68 -65 -107 -102 -61 -59 -121 -140 -140 -190 -10 -28 13 -21 35 11 11 15 75 75 142 132 149 129 159 145 159 276 0 152 -45 292 -166 522 -66 124 -112 186 -251 334 -138 146 -191 211 -249 299 -94 145 -153 290 -151 368 2 62 -4 120 -12 120 -4 0 -14 -46 -20 -103z"/>
 <path d="M1794 3210 c-49 -32 -78 -98 -78 -184 -1 -64 2 -77 28 -114 16 -23 35 -42 42 -42 18 0 18 10 -2 39 -21 30 -15 141 11 191 26 53 75 100 103 100 38 0 86 -35 142 -102 52 -62 163 -241 207 -333 13 -27 36 -70 51 -95 l26 -45 -29 20 c-49 32 -117 65 -136 65 -10 0 -21 5 -24 10 -10 16 -58 11 -91 -9 l-31 -19 -48 49 c-37 38 -56 49 -90 55 -69 10 -102 -2 -115 -41 -11 -34 -6 -93 13 -130 5 -11 -10 -2 -34 21 -62 58 -89 74 -125 74 -26 0 -33 -5 -38 -26 -18 -69 129 -253 229 -288 28 -10 59 -21 70 -26 11 -4 51 -59 89 -123 146 -244 337 -467 445 -520 67 -33 151 -38 151 -9 0 37 -15 45 -68 37 -70 -9 -125 19 -209 109 -65 68 -239 321 -307 446 -163 298 -205 421 -155 453 27 17 62 0 127 -58 46 -42 64 -67 73 -98 25 -95 94 -187 164 -218 44 -20 90 -24 100 -9 3 6 41 10 84 10 l78 0 50 -82 c157 -256 334 -396 460 -362 33 9 38 39 13 79 -23 38 -45 47 -37 16 5 -20 -14 -43 -46 -54 -57 -21 -176 80 -257 218 -71 120 -100 173 -100 180 0 4 59 5 130 2 93 -4 130 -2 130 6 0 6 -20 41 -44 77 -94 139 -126 223 -90 237 23 8 109 -36 174 -90 43 -35 65 -65 100 -134 25 -48 59 -108 76 -133 17 -25 44 -68 60 -97 53 -95 147 -247 205 -333 41 -61 78 -100 126 -137 69 -53 146 -88 170 -79 39 15 -18 156 -118 291 -83 112 -200 225 -301 294 -43 28 -78 56 -78 61 0 5 -14 30 -32 56 -41 61 -98 192 -98 225 0 91 126 44 265 -100 47 -49 65 -61 65 -43 0 18 -74 93 -143 145 -57 43 -86 58 -129 66 -86 16 -128 -1 -128 -50 l0 -29 -48 35 c-112 80 -242 113 -257 64 -8 -25 44 -139 109 -235 52 -78 50 -82 -39 -83 -92 0 -125 11 -144 46 -170 336 -375 643 -482 724 -65 50 -162 63 -215 29z m422 -545 c62 -31 156 -121 174 -166 7 -19 20 -42 28 -51 13 -16 13 -18 -2 -24 -9 -4 -34 -4 -56 0 -22 3 -41 2 -45 -4 -10 -16 -25 -11 -25 8 0 44 -57 87 -133 100 -47 8 -68 38 -70 97 -2 68 44 82 129 40z m-485 -54 c55 -58 139 -174 139 -192 0 -15 -31 -10 -65 11 -38 24 -108 113 -136 173 -39 87 -16 90 62 8z m468 -125 c30 -28 45 -66 31 -80 -13 -13 -100 73 -100 99 0 21 35 11 69 -19z m973 -233 c61 -49 159 -148 203 -204 88 -113 149 -255 121 -278 -26 -21 -141 127 -296 379 -25 41 -54 87 -64 103 -23 34 -7 35 36 0z"/>
 <path d="M747 2823 c-4 -3 -7 -29 -7 -57 l0 -51 93 -90 c118 -114 422 -388 550 -495 87 -73 177 -123 193 -107 3 3 -1 18 -9 34 -8 15 -24 78 -36 138 -75 395 -79 427 -57 460 13 20 21 23 48 18 20 -4 29 -3 25 4 -11 18 -147 47 -159 35 -9 -9 -8 -42 1 -123 12 -107 12 -112 -7 -132 -25 -24 -88 -36 -200 -36 l-83 -1 -56 53 c-103 96 -235 251 -260 305 -26 55 -26 56 -36 45z m692 -527 c11 -61 23 -131 27 -156 9 -53 23 -61 -141 79 -175 150 -188 164 -170 177 10 7 62 12 139 11 l124 0 21 -111z"/>
 <path d="M2181 2303 c0 -12 224 -188 243 -191 55 -11 -22 61 -191 176 -32 22 -53 28 -52 15z"/>
 <path d="M2830 2222 c0 -33 20 -55 47 -50 19 3 28 35 15 55 -4 6 -20 15 -35 18 -25 7 -27 5 -27 -23z"/>
 <path d="M240 1300 c0 -5 4 -19 9 -32 5 -13 14 -41 21 -63 7 -22 27 -65 46 -96 36 -60 100 -108 249 -184 44 -23 111 -59 148 -81 38 -21 78 -44 89 -51 11 -6 23 -15 27 -20 3 -5 21 -19 38 -32 18 -12 45 -43 59 -67 25 -43 26 -49 15 -98 -7 -33 -34 -86 -70 -143 -91 -141 -100 -192 -42 -247 35 -34 117 -76 146 -76 48 0 125 60 125 96 0 19 -10 17 -36 -7 -17 -16 -30 -20 -49 -15 -32 8 -115 83 -115 104 0 9 19 47 41 84 69 114 80 218 34 308 -43 83 -191 192 -415 306 -89 45 -152 84 -186 116 -48 45 -95 122 -109 181 -7 25 -25 38 -25 17z"/>
 <path d="M610 1122 c0 -11 56 -36 194 -88 50 -19 100 -39 111 -44 53 -25 150 -60 167 -60 42 0 7 43 -49 60 -21 6 -47 15 -58 20 -24 11 -245 84 -295 98 -19 5 -43 13 -52 17 -10 4 -18 3 -18 -3z"/>
 <path d="M1115 660 c-10 -16 3 -28 43 -40 20 -7 41 -16 47 -21 5 -5 15 -9 23 -9 8 0 28 -7 45 -14 50 -23 203 -63 337 -87 70 -13 449 -19 456 -8 3 5 14 9 25 9 26 0 115 27 159 49 65 32 42 75 -57 105 -27 9 -31 -9 -8 -34 51 -56 -89 -107 -267 -97 -232 13 -434 53 -593 117 -90 36 -197 52 -210 30z"/>
 </g>
<g id="layer2" fill="#2ec2ec" stroke="none">
 <path d="M135 3548 c12 -87 33 -110 57 -64 11 22 13 11 14 -82 1 -102 3 -110 33 -162 38 -65 100 -156 156 -228 22 -28 67 -88 100 -132 33 -44 83 -109 111 -143 28 -34 53 -70 57 -79 3 -10 11 -18 17 -18 6 0 15 -10 20 -22 6 -13 33 -52 60 -88 90 -118 175 -240 200 -289 14 -27 31 -56 38 -64 17 -20 51 -111 64 -167 5 -25 14 -55 20 -67 16 -33 4 -150 -23 -215 -27 -65 -62 -104 -237 -266 -69 -64 -122 -121 -122 -131 0 -15 11 -20 60 -25 33 -4 62 -11 65 -15 2 -5 22 -12 42 -16 63 -12 175 -69 229 -118 80 -72 147 -179 242 -387 l38 -85 75 -23 c41 -12 80 -22 87 -22 18 0 15 34 -12 113 -44 131 -76 252 -100 377 -7 36 -17 74 -22 85 -14 30 -12 508 2 526 7 8 15 34 18 59 4 25 20 79 36 120 15 41 31 85 34 96 5 18 -10 35 -91 104 -89 75 -215 186 -283 250 -15 14 -62 57 -105 95 -43 39 -123 113 -177 166 l-99 96 3 49 c3 54 19 62 29 15 9 -45 78 -132 200 -253 l109 -108 125 0 c89 0 136 4 162 15 l36 15 -8 73 c-4 39 -8 97 -9 127 -1 66 8 70 101 45 71 -20 82 -35 23 -35 -36 0 -40 -2 -45 -33 -6 -29 16 -194 45 -337 4 -25 14 -73 21 -107 6 -35 15 -60 19 -58 7 5 37 63 53 105 4 8 20 38 37 65 16 28 33 57 37 65 3 8 15 26 25 39 26 34 23 43 -28 103 -88 102 -114 164 -82 196 23 23 56 12 113 -39 30 -29 58 -49 61 -46 3 3 0 24 -6 47 -22 82 7 130 79 130 37 0 54 -6 81 -30 19 -16 42 -29 50 -30 9 0 56 40 105 90 l89 89 -20 38 c-64 126 -182 243 -245 243 -48 0 -94 -50 -114 -123 -17 -63 -17 -150 -1 -192 12 -30 -41 33 -61 73 -12 24 -14 47 -9 88 7 62 16 83 58 134 15 19 28 38 28 42 0 14 -70 8 -103 -8 -18 -9 -54 -33 -82 -53 -43 -31 -57 -36 -105 -35 -73 0 -107 19 -275 151 -201 159 -192 153 -251 153 -54 0 -59 -2 -327 -144 -109 -58 -143 -60 -190 -11 -18 19 -42 52 -52 72 -10 21 -22 46 -27 56 -5 9 -11 38 -15 63 -3 25 -15 57 -27 71 -53 64 -51 63 -137 63 l-81 0 7 -52z"/>
 <path d="M1155 3580 c-16 -5 -58 -16 -93 -24 -68 -17 -102 -32 -102 -44 0 -5 22 -14 50 -21 69 -18 148 -71 268 -183 114 -106 195 -153 247 -145 17 3 49 17 71 32 21 14 51 29 67 32 32 7 33 13 7 87 -45 131 -121 222 -218 259 -46 18 -239 23 -297 7z"/>
 <path d="M1944 3421 c-84 -14 -92 -28 -48 -87 l27 -35 -28 -29 -27 -28 36 -10 c69 -19 158 -98 250 -220 l48 -63 42 38 c23 21 63 56 89 77 26 22 47 47 47 58 0 17 -4 19 -32 12 -67 -16 -90 -11 -114 24 -13 18 -28 59 -34 90 -27 136 -55 170 -145 176 -33 3 -83 1 -111 -3z"/>
 <path d="M1812 2768 c-7 -7 -12 -26 -12 -43 0 -42 29 -125 43 -125 16 0 107 105 107 123 0 15 -77 57 -107 57 -10 0 -24 -5 -31 -12z"/>
 <path d="M1650 2647 c0 -31 73 -151 94 -155 9 -2 23 2 31 8 29 24 17 58 -40 115 -60 59 -85 69 -85 32z"/>
 <path d="M1173 2403 c-18 -2 -33 -9 -33 -14 0 -14 81 -94 155 -154 33 -26 62 -51 65 -54 14 -17 89 -71 100 -71 8 0 10 10 6 33 -3 17 -15 85 -27 150 l-21 117 -107 -2 c-58 0 -121 -3 -138 -5z"/>
 </g>

</svg>